<?xml version="1.0"?>
<svg viewBox="0 0 32 32" width="96" height="96" xmlns="http://www.w3.org/2000/svg"><g fill="none" stroke="#413645" stroke-width="2" stroke-linecap="round" stroke-linejoin="round"><path d="M5 9 Q4.8 6.9 7 6.8 Q16 6.2 25 6.9 Q27.2 7.1 27 9.2 Q27.3 14.4 26.9 18.4 Q26.7 20.5 24.5 20.6 Q19.2 21 13.8 20.8 Q11 23.6 8.7 26 Q7.8 26.8 7.8 25.3 Q7.9 23 7.8 20.7 Q5.2 20.4 5.1 18.3 Q4.7 13.8 5 9Z"></path></g><g fill="none" stroke="#a85a76" stroke-width="2" stroke-linecap="round" stroke-linejoin="round"><path fill="#a85a76" stroke="none" d="M11.8 13.8 Q11.8 15.2 10.4 15.2 Q9 15.2 9 13.8 Q9 12.4 10.4 12.4 Q11.8 12.4 11.8 13.8Z"></path><path fill="#a85a76" stroke="none" d="M17.4 13.8 Q17.4 15.2 16 15.2 Q14.6 15.2 14.6 13.8 Q14.6 12.4 16 12.4 Q17.4 12.4 17.4 13.8Z"></path><path fill="#a85a76" stroke="none" d="M23 13.8 Q23 15.2 21.6 15.2 Q20.2 15.2 20.2 13.8 Q20.2 12.4 21.6 12.4 Q23 12.4 23 13.8Z"></path></g></svg>